<svg xmlns="http://www.w3.org/2000/svg" viewBox="0 0 128 128">

	<path fill="#4a4a4a" d="M0 0h128v128H0z"/>
	
	<path fill="#b4b4b4" d="M36.793,49.874c0.393-2.458,0.896-5.125,1.512-8
		c0.614-2.875,1.29-5.825,2.027-8.848c0.738-3.023,1.523-6.021,2.36-8.996c0.835-2.974,1.646-5.789,2.433-8.443H34.064
		c-1.131,2.557-2.372,5.322-3.723,8.295c-1.353,2.975-2.667,5.985-3.945,9.032c-1.279,3.049-2.483,6.022-3.613,8.922
		c-1.131,2.901-2.041,5.58-2.728,8.037H36.793z"/>

	<path fill="#b4b4b4" d="M54.748,105.986c0.516,1.131,1.228,2.127,2.138,2.986
		c0.909,0.861,1.965,1.537,3.171,2.028c1.204,0.491,2.494,0.737,3.871,0.737c1.425,0,2.74-0.247,3.945-0.737
		c1.204-0.491,2.249-1.167,3.133-2.028c0.885-0.859,1.585-1.855,2.102-2.986c0.517-1.13,0.774-2.334,0.774-3.613
		c0-1.327-0.258-2.544-0.774-3.65c-0.516-1.106-1.216-2.076-2.102-2.913c-0.885-0.835-1.93-1.486-3.133-1.954
		c-1.205-0.466-2.52-0.701-3.945-0.701c-1.377,0-2.667,0.234-3.871,0.701c-1.206,0.468-2.262,1.119-3.171,1.954
		c-0.91,0.836-1.622,1.807-2.138,2.913s-0.774,2.323-0.774,3.65C53.973,103.652,54.231,104.856,54.748,105.986z"/>

	<path fill="#b4b4b4" d="M90.841,15.734c-0.344,2.458-0.811,5.125-1.401,8
		c-0.59,2.875-1.229,5.825-1.917,8.848c-0.689,3.023-1.438,6.022-2.249,8.996c-0.811,2.975-1.659,5.788-2.544,8.443h10.839
		c1.18-2.556,2.457-5.309,3.834-8.258c1.375-2.95,2.716-5.936,4.019-8.959c1.302-3.023,2.519-5.997,3.65-8.922
		c1.13-2.924,2.04-5.641,2.729-8.148H90.841z"/>

</svg>